<?xml version="1.0" encoding="utf-8"?>
<!-- Svg Vector Icons : http://www.onlinewebfonts.com/icon -->
<!DOCTYPE svg PUBLIC "-//W3C//DTD SVG 1.1//EN" "http://www.w3.org/Graphics/SVG/1.1/DTD/svg11.dtd">
<svg version="1.1" xmlns="http://www.w3.org/2000/svg" xmlns:xlink="http://www.w3.org/1999/xlink" x="0px" y="0px" viewBox="0 0 1000 1000" enable-background="new 0 0 1000 1000" xml:space="preserve">
<metadata> Svg Vector Icons : http://www.onlinewebfonts.com/icon </metadata>
<g><path d="M990,500c0-213.7-137-322.7-142.8-327.3c-23.1-18.1-56.4-13.9-74.6,9.2c-18.2,23-14.2,56.5,8.7,74.9c4.1,3.4,101.8,83.5,101.8,243.2c0,131.1-65.1,207.7-90.8,233l-55-55c25.1-34.5,49.1-84.5,49.1-150.6c0-135.7-100.9-204.6-105.3-207.5c-24.4-16.3-57-9.8-73.5,14.5c-16.6,24.1-10.3,57.2,13.7,74.1c2.4,1.6,58.1,41.6,58.1,118.9c0,30.4-8.7,54.8-19.3,73.5L508.9,449.6V1.1L284.7,225.3L106.5,47.1L56,97.6l178.2,178.2l-10.4,10.4H10v427.6h213.8l285.1,285.1V550.4L613,654.5c-16.4,17.7-20,44.4-6.1,65.3c10.4,15.5,27.2,23.8,44.5,23.8c10.3,0,20.6-2.9,29.6-9c0.6-0.4,3.2-2.3,6.9-5.1l79.9,79.9c1.5,2.9,2.2,5.9,4.3,8.6c5.4,7,12.3,12,19.8,15.5l119.4,119.4l50.4-50.4l-94-94C907.1,769.2,990,667.1,990,500z"/></g>
</svg>